<svg width="285" height="90" viewBox="0 0 285 90" fill="none" xmlns="http://www.w3.org/2000/svg">
<path d="M91.0795 41H90.0227C89.9602 40.696 89.8509 40.429 89.6946 40.1989C89.5412 39.9688 89.3537 39.7756 89.1321 39.6193C88.9134 39.4602 88.6705 39.3409 88.4034 39.2614C88.1364 39.1818 87.858 39.142 87.5682 39.142C87.0398 39.142 86.5611 39.2756 86.1321 39.5426C85.706 39.8097 85.3665 40.2031 85.1136 40.723C84.8636 41.2429 84.7386 41.8807 84.7386 42.6364C84.7386 43.392 84.8636 44.0298 85.1136 44.5497C85.3665 45.0696 85.706 45.4631 86.1321 45.7301C86.5611 45.9972 87.0398 46.1307 87.5682 46.1307C87.858 46.1307 88.1364 46.0909 88.4034 46.0114C88.6705 45.9318 88.9134 45.8139 89.1321 45.6577C89.3537 45.4986 89.5412 45.304 89.6946 45.0739C89.8509 44.8409 89.9602 44.5739 90.0227 44.2727H91.0795C91 44.7187 90.8551 45.1179 90.6449 45.4702C90.4347 45.8224 90.1733 46.1222 89.8608 46.3693C89.5483 46.6136 89.1974 46.7997 88.8082 46.9276C88.4219 47.0554 88.0085 47.1193 87.5682 47.1193C86.8239 47.1193 86.1619 46.9375 85.5824 46.5739C85.0028 46.2102 84.5469 45.6932 84.2145 45.0227C83.8821 44.3523 83.7159 43.5568 83.7159 42.6364C83.7159 41.7159 83.8821 40.9205 84.2145 40.25C84.5469 39.5795 85.0028 39.0625 85.5824 38.6989C86.1619 38.3352 86.8239 38.1534 87.5682 38.1534C88.0085 38.1534 88.4219 38.2173 88.8082 38.3452C89.1974 38.473 89.5483 38.6605 89.8608 38.9077C90.1733 39.152 90.4347 39.4503 90.6449 39.8026C90.8551 40.152 91 40.5511 91.0795 41ZM95.31 47.1364C94.7191 47.1364 94.2006 46.9957 93.7546 46.7145C93.3114 46.4332 92.9648 46.0398 92.7148 45.5341C92.4677 45.0284 92.3441 44.4375 92.3441 43.7614C92.3441 43.0795 92.4677 42.4844 92.7148 41.9759C92.9648 41.4673 93.3114 41.0724 93.7546 40.7912C94.2006 40.5099 94.7191 40.3693 95.31 40.3693C95.9009 40.3693 96.418 40.5099 96.8612 40.7912C97.3072 41.0724 97.6538 41.4673 97.9009 41.9759C98.1509 42.4844 98.2759 43.0795 98.2759 43.7614C98.2759 44.4375 98.1509 45.0284 97.9009 45.5341C97.6538 46.0398 97.3072 46.4332 96.8612 46.7145C96.418 46.9957 95.9009 47.1364 95.31 47.1364ZM95.31 46.233C95.7589 46.233 96.1282 46.1179 96.418 45.8878C96.7077 45.6577 96.9222 45.3551 97.0614 44.9801C97.2006 44.6051 97.2702 44.1989 97.2702 43.7614C97.2702 43.3239 97.2006 42.9162 97.0614 42.5384C96.9222 42.1605 96.7077 41.8551 96.418 41.6222C96.1282 41.3892 95.7589 41.2727 95.31 41.2727C94.8612 41.2727 94.4918 41.3892 94.2021 41.6222C93.9123 41.8551 93.6978 42.1605 93.5586 42.5384C93.4194 42.9162 93.3498 43.3239 93.3498 43.7614C93.3498 44.1989 93.4194 44.6051 93.5586 44.9801C93.6978 45.3551 93.9123 45.6577 94.2021 45.8878C94.4918 46.1179 94.8612 46.233 95.31 46.233ZM102.283 47.1364C101.737 47.1364 101.256 46.9986 100.838 46.723C100.42 46.4446 100.094 46.0526 99.858 45.5469C99.6222 45.0384 99.5043 44.4375 99.5043 43.7443C99.5043 43.0568 99.6222 42.4602 99.858 41.9545C100.094 41.4489 100.422 41.0582 100.842 40.7827C101.263 40.5071 101.749 40.3693 102.3 40.3693C102.726 40.3693 103.063 40.4403 103.31 40.5824C103.56 40.7216 103.75 40.8807 103.881 41.0597C104.014 41.2358 104.118 41.3807 104.192 41.4943H104.277V38.2727H105.283V47H104.311V45.9943H104.192C104.118 46.1136 104.013 46.2642 103.876 46.446C103.74 46.625 103.545 46.7855 103.293 46.9276C103.04 47.0668 102.703 47.1364 102.283 47.1364ZM102.419 46.233C102.822 46.233 103.163 46.1278 103.442 45.9176C103.72 45.7045 103.932 45.4105 104.077 45.0355C104.222 44.6577 104.294 44.2216 104.294 43.7273C104.294 43.2386 104.223 42.8111 104.081 42.4446C103.939 42.0753 103.729 41.7884 103.45 41.5838C103.172 41.3764 102.828 41.2727 102.419 41.2727C101.993 41.2727 101.638 41.3821 101.354 41.6009C101.072 41.8168 100.861 42.1108 100.719 42.483C100.58 42.8523 100.51 43.267 100.51 43.7273C100.51 44.1932 100.581 44.6165 100.723 44.9972C100.868 45.375 101.081 45.6761 101.362 45.9006C101.646 46.1222 101.999 46.233 102.419 46.233ZM110.009 47.1364C109.378 47.1364 108.834 46.9972 108.376 46.7188C107.922 46.4375 107.571 46.0455 107.324 45.5426C107.08 45.0369 106.957 44.4489 106.957 43.7784C106.957 43.108 107.08 42.517 107.324 42.0057C107.571 41.4915 107.915 41.0909 108.355 40.804C108.798 40.5142 109.315 40.3693 109.906 40.3693C110.247 40.3693 110.584 40.4261 110.916 40.5398C111.249 40.6534 111.551 40.8381 111.824 41.0938C112.097 41.3466 112.314 41.6818 112.476 42.0994C112.638 42.517 112.719 43.0312 112.719 43.642V44.0682H107.673V43.1989H111.696C111.696 42.8295 111.622 42.5 111.474 42.2102C111.33 41.9205 111.122 41.6918 110.852 41.5241C110.585 41.3565 110.27 41.2727 109.906 41.2727C109.506 41.2727 109.159 41.3722 108.866 41.571C108.577 41.767 108.354 42.0227 108.197 42.3381C108.041 42.6534 107.963 42.9915 107.963 43.3523V43.9318C107.963 44.4261 108.048 44.8452 108.219 45.1889C108.392 45.5298 108.632 45.7898 108.939 45.9688C109.246 46.1449 109.602 46.233 110.009 46.233C110.273 46.233 110.511 46.196 110.724 46.1222C110.94 46.0455 111.126 45.9318 111.283 45.7812C111.439 45.6278 111.56 45.4375 111.645 45.2102L112.616 45.483C112.514 45.8125 112.342 46.1023 112.101 46.3523C111.859 46.5994 111.561 46.7926 111.206 46.9318C110.851 47.0682 110.452 47.1364 110.009 47.1364ZM121.408 41H120.351C120.288 40.696 120.179 40.429 120.023 40.1989C119.869 39.9688 119.682 39.7756 119.46 39.6193C119.241 39.4602 118.999 39.3409 118.732 39.2614C118.464 39.1818 118.186 39.142 117.896 39.142C117.368 39.142 116.889 39.2756 116.46 39.5426C116.034 39.8097 115.695 40.2031 115.442 40.723C115.192 41.2429 115.067 41.8807 115.067 42.6364C115.067 43.392 115.192 44.0298 115.442 44.5497C115.695 45.0696 116.034 45.4631 116.46 45.7301C116.889 45.9972 117.368 46.1307 117.896 46.1307C118.186 46.1307 118.464 46.0909 118.732 46.0114C118.999 45.9318 119.241 45.8139 119.46 45.6577C119.682 45.4986 119.869 45.304 120.023 45.0739C120.179 44.8409 120.288 44.5739 120.351 44.2727H121.408C121.328 44.7187 121.183 45.1179 120.973 45.4702C120.763 45.8224 120.501 46.1222 120.189 46.3693C119.876 46.6136 119.526 46.7997 119.136 46.9276C118.75 47.0554 118.337 47.1193 117.896 47.1193C117.152 47.1193 116.49 46.9375 115.911 46.5739C115.331 46.2102 114.875 45.6932 114.543 45.0227C114.21 44.3523 114.044 43.5568 114.044 42.6364C114.044 41.7159 114.21 40.9205 114.543 40.25C114.875 39.5795 115.331 39.0625 115.911 38.6989C116.49 38.3352 117.152 38.1534 117.896 38.1534C118.337 38.1534 118.75 38.2173 119.136 38.3452C119.526 38.473 119.876 38.6605 120.189 38.9077C120.501 39.152 120.763 39.4503 120.973 39.8026C121.183 40.152 121.328 40.5511 121.408 41ZM125.638 47.1364C125.047 47.1364 124.529 46.9957 124.083 46.7145C123.64 46.4332 123.293 46.0398 123.043 45.5341C122.796 45.0284 122.672 44.4375 122.672 43.7614C122.672 43.0795 122.796 42.4844 123.043 41.9759C123.293 41.4673 123.64 41.0724 124.083 40.7912C124.529 40.5099 125.047 40.3693 125.638 40.3693C126.229 40.3693 126.746 40.5099 127.189 40.7912C127.635 41.0724 127.982 41.4673 128.229 41.9759C128.479 42.4844 128.604 43.0795 128.604 43.7614C128.604 44.4375 128.479 45.0284 128.229 45.5341C127.982 46.0398 127.635 46.4332 127.189 46.7145C126.746 46.9957 126.229 47.1364 125.638 47.1364ZM125.638 46.233C126.087 46.233 126.456 46.1179 126.746 45.8878C127.036 45.6577 127.25 45.3551 127.39 44.9801C127.529 44.6051 127.598 44.1989 127.598 43.7614C127.598 43.3239 127.529 42.9162 127.39 42.5384C127.25 42.1605 127.036 41.8551 126.746 41.6222C126.456 41.3892 126.087 41.2727 125.638 41.2727C125.189 41.2727 124.82 41.3892 124.53 41.6222C124.24 41.8551 124.026 42.1605 123.887 42.5384C123.748 42.9162 123.678 43.3239 123.678 43.7614C123.678 44.1989 123.748 44.6051 123.887 44.9801C124.026 45.3551 124.24 45.6577 124.53 45.8878C124.82 46.1179 125.189 46.233 125.638 46.233ZM130.139 47V40.4545H131.111V41.4773H131.196C131.332 41.1278 131.553 40.8565 131.857 40.6634C132.161 40.4673 132.526 40.3693 132.952 40.3693C133.384 40.3693 133.743 40.4673 134.03 40.6634C134.32 40.8565 134.545 41.1278 134.707 41.4773H134.776C134.943 41.1392 135.195 40.8707 135.53 40.6719C135.865 40.4702 136.267 40.3693 136.736 40.3693C137.321 40.3693 137.8 40.5526 138.172 40.919C138.544 41.2827 138.73 41.8494 138.73 42.6193V47H137.724V42.6193C137.724 42.1364 137.592 41.7912 137.328 41.5838C137.064 41.3764 136.753 41.2727 136.395 41.2727C135.935 41.2727 135.578 41.4119 135.325 41.6903C135.072 41.9659 134.946 42.3153 134.946 42.7386V47H133.923V42.517C133.923 42.1449 133.803 41.8452 133.561 41.6179C133.32 41.3878 133.009 41.2727 132.628 41.2727C132.366 41.2727 132.122 41.3423 131.895 41.4815C131.67 41.6207 131.489 41.8139 131.349 42.0611C131.213 42.3054 131.145 42.5881 131.145 42.9091V47H130.139ZM140.569 49.4545V40.4545H141.54V41.4943H141.66C141.734 41.3807 141.836 41.2358 141.967 41.0597C142.1 40.8807 142.29 40.7216 142.538 40.5824C142.788 40.4403 143.126 40.3693 143.552 40.3693C144.103 40.3693 144.589 40.5071 145.009 40.7827C145.43 41.0582 145.758 41.4489 145.994 41.9545C146.229 42.4602 146.347 43.0568 146.347 43.7443C146.347 44.4375 146.229 45.0384 145.994 45.5469C145.758 46.0526 145.431 46.4446 145.013 46.723C144.596 46.9986 144.114 47.1364 143.569 47.1364C143.148 47.1364 142.812 47.0668 142.559 46.9276C142.306 46.7855 142.112 46.625 141.975 46.446C141.839 46.2642 141.734 46.1136 141.66 45.9943H141.575V49.4545H140.569ZM141.558 43.7273C141.558 44.2216 141.63 44.6577 141.775 45.0355C141.92 45.4105 142.131 45.7045 142.41 45.9176C142.688 46.1278 143.029 46.233 143.433 46.233C143.853 46.233 144.204 46.1222 144.485 45.9006C144.769 45.6761 144.982 45.375 145.124 44.9972C145.269 44.6165 145.342 44.1932 145.342 43.7273C145.342 43.267 145.271 42.8523 145.129 42.483C144.989 42.1108 144.778 41.8168 144.494 41.6009C144.212 41.3821 143.859 41.2727 143.433 41.2727C143.023 41.2727 142.68 41.3764 142.401 41.5838C142.123 41.7884 141.913 42.0753 141.771 42.4446C141.629 42.8111 141.558 43.2386 141.558 43.7273ZM148.887 38.2727V47H147.881V38.2727H148.887ZM153.473 47.1364C152.843 47.1364 152.299 46.9972 151.841 46.7188C151.387 46.4375 151.036 46.0455 150.789 45.5426C150.544 45.0369 150.422 44.4489 150.422 43.7784C150.422 43.108 150.544 42.517 150.789 42.0057C151.036 41.4915 151.38 41.0909 151.82 40.804C152.263 40.5142 152.78 40.3693 153.371 40.3693C153.712 40.3693 154.049 40.4261 154.381 40.5398C154.713 40.6534 155.016 40.8381 155.289 41.0938C155.561 41.3466 155.779 41.6818 155.941 42.0994C156.103 42.517 156.184 43.0312 156.184 43.642V44.0682H151.138V43.1989H155.161C155.161 42.8295 155.087 42.5 154.939 42.2102C154.794 41.9205 154.587 41.6918 154.317 41.5241C154.05 41.3565 153.735 41.2727 153.371 41.2727C152.971 41.2727 152.624 41.3722 152.331 41.571C152.042 41.767 151.819 42.0227 151.662 42.3381C151.506 42.6534 151.428 42.9915 151.428 43.3523V43.9318C151.428 44.4261 151.513 44.8452 151.684 45.1889C151.857 45.5298 152.097 45.7898 152.404 45.9688C152.711 46.1449 153.067 46.233 153.473 46.233C153.738 46.233 153.976 46.196 154.189 46.1222C154.405 46.0455 154.591 45.9318 154.748 45.7812C154.904 45.6278 155.025 45.4375 155.11 45.2102L156.081 45.483C155.979 45.8125 155.807 46.1023 155.566 46.3523C155.324 46.5994 155.026 46.7926 154.671 46.9318C154.316 47.0682 153.917 47.1364 153.473 47.1364ZM158.288 40.4545L159.856 43.1307L161.424 40.4545H162.583L160.469 43.7273L162.583 47H161.424L159.856 44.4602L158.288 47H157.129L159.208 43.7273L157.129 40.4545H158.288ZM164.018 47V40.4545H165.024V47H164.018ZM164.529 39.3636C164.333 39.3636 164.164 39.2969 164.022 39.1634C163.883 39.0298 163.814 38.8693 163.814 38.6818C163.814 38.4943 163.883 38.3338 164.022 38.2003C164.164 38.0668 164.333 38 164.529 38C164.725 38 164.893 38.0668 165.032 38.2003C165.174 38.3338 165.245 38.4943 165.245 38.6818C165.245 38.8693 165.174 39.0298 165.032 39.1634C164.893 39.2969 164.725 39.3636 164.529 39.3636ZM169.712 40.4545V41.3068H166.32V40.4545H169.712ZM167.309 38.8864H168.315V45.125C168.315 45.4091 168.356 45.6222 168.438 45.7642C168.523 45.9034 168.631 45.9972 168.762 46.0455C168.896 46.0909 169.036 46.1136 169.184 46.1136C169.295 46.1136 169.386 46.108 169.457 46.0966C169.528 46.0824 169.585 46.071 169.627 46.0625L169.832 46.9659C169.763 46.9915 169.668 47.017 169.546 47.0426C169.424 47.071 169.269 47.0852 169.082 47.0852C168.798 47.0852 168.519 47.0241 168.246 46.902C167.977 46.7798 167.752 46.5938 167.573 46.3438C167.397 46.0938 167.309 45.7784 167.309 45.3977V38.8864ZM171.873 49.4545C171.702 49.4545 171.55 49.4403 171.417 49.4119C171.283 49.3864 171.191 49.3608 171.14 49.3352L171.396 48.4489C171.64 48.5114 171.856 48.5341 172.043 48.517C172.231 48.5 172.397 48.4162 172.542 48.2656C172.69 48.1179 172.825 47.8778 172.947 47.5455L173.134 47.0341L170.714 40.4545H171.805L173.612 45.6705H173.68L175.487 40.4545H176.577L173.799 47.9545C173.674 48.2926 173.519 48.5724 173.335 48.794C173.15 49.0185 172.935 49.1847 172.691 49.2926C172.45 49.4006 172.177 49.4545 171.873 49.4545ZM178.041 38.2727H179.303L182.268 45.517H182.371L185.337 38.2727H186.598V47H185.609V40.3693H185.524L182.797 47H181.842L179.115 40.3693H179.03V47H178.041V38.2727ZM191.325 47.1364C190.694 47.1364 190.15 46.9972 189.693 46.7188C189.238 46.4375 188.887 46.0455 188.64 45.5426C188.396 45.0369 188.274 44.4489 188.274 43.7784C188.274 43.108 188.396 42.517 188.64 42.0057C188.887 41.4915 189.231 41.0909 189.672 40.804C190.115 40.5142 190.632 40.3693 191.223 40.3693C191.564 40.3693 191.9 40.4261 192.233 40.5398C192.565 40.6534 192.868 40.8381 193.14 41.0938C193.413 41.3466 193.63 41.6818 193.792 42.0994C193.954 42.517 194.035 43.0312 194.035 43.642V44.0682H188.99V43.1989H193.012C193.012 42.8295 192.939 42.5 192.791 42.2102C192.646 41.9205 192.439 41.6918 192.169 41.5241C191.902 41.3565 191.586 41.2727 191.223 41.2727C190.822 41.2727 190.475 41.3722 190.183 41.571C189.893 41.767 189.67 42.0227 189.514 42.3381C189.358 42.6534 189.279 42.9915 189.279 43.3523V43.9318C189.279 44.4261 189.365 44.8452 189.535 45.1889C189.708 45.5298 189.949 45.7898 190.255 45.9688C190.562 46.1449 190.919 46.233 191.325 46.233C191.589 46.233 191.828 46.196 192.041 46.1222C192.257 46.0455 192.443 45.9318 192.599 45.7812C192.755 45.6278 192.876 45.4375 192.961 45.2102L193.933 45.483C193.831 45.8125 193.659 46.1023 193.417 46.3523C193.176 46.5994 192.877 46.7926 192.522 46.9318C192.167 47.0682 191.768 47.1364 191.325 47.1364ZM197.491 47.1534C197.076 47.1534 196.7 47.0753 196.362 46.919C196.024 46.7599 195.755 46.5312 195.556 46.233C195.358 45.9318 195.258 45.5682 195.258 45.142C195.258 44.767 195.332 44.4631 195.48 44.2301C195.627 43.9943 195.825 43.8097 196.072 43.6761C196.319 43.5426 196.592 43.4432 196.89 43.3778C197.191 43.3097 197.494 43.2557 197.798 43.2159C198.196 43.1648 198.518 43.1264 198.765 43.1009C199.015 43.0724 199.197 43.0256 199.311 42.9602C199.427 42.8949 199.485 42.7812 199.485 42.6193V42.5852C199.485 42.1648 199.37 41.8381 199.14 41.6051C198.913 41.3722 198.568 41.2557 198.105 41.2557C197.625 41.2557 197.248 41.3608 196.975 41.571C196.703 41.7812 196.511 42.0057 196.4 42.2443L195.446 41.9034C195.616 41.5057 195.843 41.196 196.127 40.9744C196.414 40.75 196.727 40.5937 197.065 40.5057C197.406 40.4148 197.741 40.3693 198.071 40.3693C198.281 40.3693 198.522 40.3949 198.795 40.446C199.071 40.4943 199.336 40.5952 199.592 40.7486C199.85 40.902 200.065 41.1335 200.235 41.4432C200.406 41.7528 200.491 42.1676 200.491 42.6875V47H199.485V46.1136H199.434C199.366 46.2557 199.252 46.4077 199.093 46.5696C198.934 46.7315 198.723 46.8693 198.458 46.983C198.194 47.0966 197.872 47.1534 197.491 47.1534ZM197.645 46.25C198.042 46.25 198.377 46.1719 198.65 46.0156C198.926 45.8594 199.133 45.6577 199.272 45.4105C199.414 45.1634 199.485 44.9034 199.485 44.6307V43.7102C199.443 43.7614 199.349 43.8082 199.204 43.8509C199.062 43.8906 198.897 43.9261 198.71 43.9574C198.525 43.9858 198.345 44.0114 198.169 44.0341C197.995 44.054 197.855 44.071 197.747 44.0852C197.485 44.1193 197.241 44.1747 197.014 44.2514C196.789 44.3253 196.608 44.4375 196.468 44.5881C196.332 44.7358 196.264 44.9375 196.264 45.1932C196.264 45.5426 196.393 45.8068 196.652 45.9858C196.913 46.1619 197.244 46.25 197.645 46.25ZM206.963 41.9205L206.06 42.1761C206.003 42.0256 205.919 41.8793 205.808 41.7372C205.7 41.5923 205.553 41.473 205.365 41.3793C205.178 41.2855 204.938 41.2386 204.645 41.2386C204.244 41.2386 203.911 41.331 203.643 41.5156C203.379 41.6974 203.247 41.929 203.247 42.2102C203.247 42.4602 203.338 42.6577 203.52 42.8026C203.702 42.9474 203.986 43.0682 204.372 43.1648L205.344 43.4034C205.929 43.5455 206.365 43.7628 206.652 44.0554C206.939 44.3452 207.082 44.7187 207.082 45.1761C207.082 45.5511 206.974 45.8864 206.759 46.1818C206.545 46.4773 206.247 46.7102 205.864 46.8807C205.48 47.0511 205.034 47.1364 204.526 47.1364C203.858 47.1364 203.305 46.9915 202.868 46.7017C202.43 46.4119 202.153 45.9886 202.037 45.4318L202.991 45.1932C203.082 45.5455 203.254 45.8097 203.507 45.9858C203.763 46.1619 204.097 46.25 204.509 46.25C204.977 46.25 205.349 46.1506 205.625 45.9517C205.903 45.75 206.043 45.5085 206.043 45.2273C206.043 45 205.963 44.8097 205.804 44.6562C205.645 44.5 205.401 44.3835 205.071 44.3068L203.98 44.0511C203.381 43.9091 202.94 43.6889 202.659 43.3906C202.381 43.0895 202.241 42.7131 202.241 42.2614C202.241 41.892 202.345 41.5653 202.553 41.2812C202.763 40.9972 203.048 40.7741 203.409 40.6122C203.773 40.4503 204.185 40.3693 204.645 40.3693C205.293 40.3693 205.801 40.5114 206.17 40.7955C206.543 41.0795 206.807 41.4545 206.963 41.9205ZM212.721 44.3239V40.4545H213.727V47H212.721V45.892H212.653C212.5 46.2244 212.261 46.5071 211.937 46.7401C211.613 46.9702 211.204 47.0852 210.71 47.0852C210.301 47.0852 209.937 46.9957 209.619 46.8168C209.301 46.6349 209.051 46.3622 208.869 45.9986C208.687 45.6321 208.596 45.1705 208.596 44.6136V40.4545H209.602V44.5455C209.602 45.0227 209.735 45.4034 210.002 45.6875C210.272 45.9716 210.616 46.1136 211.034 46.1136C211.284 46.1136 211.538 46.0497 211.797 45.9219C212.058 45.794 212.277 45.598 212.453 45.3338C212.632 45.0696 212.721 44.733 212.721 44.3239ZM215.569 47V40.4545H216.54V41.4432H216.609C216.728 41.1193 216.944 40.8565 217.256 40.6548C217.569 40.4531 217.921 40.3523 218.313 40.3523C218.387 40.3523 218.479 40.3537 218.59 40.3565C218.701 40.3594 218.785 40.3636 218.842 40.3693V41.392C218.808 41.3835 218.729 41.3707 218.607 41.3537C218.488 41.3338 218.362 41.3239 218.228 41.3239C217.91 41.3239 217.626 41.3906 217.376 41.5241C217.129 41.6548 216.933 41.8366 216.788 42.0696C216.646 42.2997 216.575 42.5625 216.575 42.858V47H215.569ZM220.034 47V40.4545H221.039V47H220.034ZM220.545 39.3636C220.349 39.3636 220.18 39.2969 220.038 39.1634C219.899 39.0298 219.829 38.8693 219.829 38.6818C219.829 38.4943 219.899 38.3338 220.038 38.2003C220.18 38.0668 220.349 38 220.545 38C220.741 38 220.909 38.0668 221.048 38.2003C221.19 38.3338 221.261 38.4943 221.261 38.6818C221.261 38.8693 221.19 39.0298 221.048 39.1634C220.909 39.2969 220.741 39.3636 220.545 39.3636ZM223.887 43.0625V47H222.881V40.4545H223.853V41.4773H223.938C224.092 41.1449 224.325 40.8778 224.637 40.6761C224.95 40.4716 225.353 40.3693 225.847 40.3693C226.29 40.3693 226.678 40.4602 227.011 40.642C227.343 40.821 227.602 41.0938 227.786 41.4602C227.971 41.8239 228.063 42.2841 228.063 42.8409V47H227.058V42.9091C227.058 42.3949 226.924 41.9943 226.657 41.7074C226.39 41.4176 226.023 41.2727 225.558 41.2727C225.237 41.2727 224.95 41.3423 224.697 41.4815C224.447 41.6207 224.249 41.8239 224.104 42.0909C223.96 42.358 223.887 42.6818 223.887 43.0625ZM232.543 49.5909C232.057 49.5909 231.64 49.5284 231.29 49.4034C230.941 49.2812 230.65 49.1193 230.417 48.9176C230.186 48.7188 230.003 48.5057 229.867 48.2784L230.668 47.7159C230.759 47.8352 230.874 47.9716 231.013 48.125C231.152 48.2812 231.343 48.4162 231.584 48.5298C231.828 48.6463 232.148 48.7045 232.543 48.7045C233.071 48.7045 233.507 48.5767 233.851 48.321C234.195 48.0653 234.367 47.6648 234.367 47.1193V45.7898H234.282C234.208 45.9091 234.103 46.0568 233.966 46.233C233.833 46.4062 233.64 46.5611 233.387 46.6974C233.137 46.831 232.799 46.8977 232.373 46.8977C231.844 46.8977 231.37 46.7727 230.949 46.5227C230.532 46.2727 230.201 45.9091 229.956 45.4318C229.715 44.9545 229.594 44.375 229.594 43.6932C229.594 43.0227 229.712 42.4389 229.948 41.9418C230.184 41.4418 230.512 41.0554 230.932 40.7827C231.353 40.5071 231.838 40.3693 232.39 40.3693C232.816 40.3693 233.154 40.4403 233.404 40.5824C233.657 40.7216 233.85 40.8807 233.983 41.0597C234.12 41.2358 234.225 41.3807 234.299 41.4943H234.401V40.4545H235.373V47.1875C235.373 47.75 235.245 48.2074 234.989 48.5597C234.736 48.9148 234.395 49.1747 233.966 49.3395C233.54 49.5071 233.066 49.5909 232.543 49.5909ZM232.509 45.9943C232.912 45.9943 233.253 45.902 233.532 45.7173C233.81 45.5327 234.022 45.267 234.167 44.9205C234.311 44.5739 234.384 44.1591 234.384 43.6761C234.384 43.2045 234.313 42.7884 234.171 42.4276C234.029 42.0668 233.819 41.7841 233.54 41.5795C233.262 41.375 232.918 41.2727 232.509 41.2727C232.083 41.2727 231.728 41.3807 231.444 41.5966C231.162 41.8125 230.951 42.1023 230.809 42.4659C230.669 42.8295 230.6 43.233 230.6 43.6761C230.6 44.1307 230.671 44.5327 230.813 44.8821C230.958 45.2287 231.171 45.5014 231.452 45.7003C231.736 45.8963 232.088 45.9943 232.509 45.9943ZM237.35 38.2727H238.611L241.577 45.517H241.679L244.645 38.2727H245.907V47H244.918V40.3693H244.833L242.105 47H241.151L238.424 40.3693H238.338V47H237.35V38.2727ZM249.815 47.1534C249.401 47.1534 249.024 47.0753 248.686 46.919C248.348 46.7599 248.08 46.5312 247.881 46.233C247.682 45.9318 247.582 45.5682 247.582 45.142C247.582 44.767 247.656 44.4631 247.804 44.2301C247.952 43.9943 248.149 43.8097 248.396 43.6761C248.643 43.5426 248.916 43.4432 249.214 43.3778C249.516 43.3097 249.818 43.2557 250.122 43.2159C250.52 43.1648 250.842 43.1264 251.089 43.1009C251.339 43.0724 251.521 43.0256 251.635 42.9602C251.751 42.8949 251.81 42.7812 251.81 42.6193V42.5852C251.81 42.1648 251.695 41.8381 251.464 41.6051C251.237 41.3722 250.892 41.2557 250.429 41.2557C249.949 41.2557 249.572 41.3608 249.3 41.571C249.027 41.7812 248.835 42.0057 248.724 42.2443L247.77 41.9034C247.94 41.5057 248.168 41.196 248.452 40.9744C248.739 40.75 249.051 40.5937 249.389 40.5057C249.73 40.4148 250.065 40.3693 250.395 40.3693C250.605 40.3693 250.847 40.3949 251.119 40.446C251.395 40.4943 251.661 40.5952 251.916 40.7486C252.175 40.902 252.389 41.1335 252.56 41.4432C252.73 41.7528 252.815 42.1676 252.815 42.6875V47H251.81V46.1136H251.759C251.69 46.2557 251.577 46.4077 251.418 46.5696C251.259 46.7315 251.047 46.8693 250.783 46.983C250.518 47.0966 250.196 47.1534 249.815 47.1534ZM249.969 46.25C250.366 46.25 250.702 46.1719 250.974 46.0156C251.25 45.8594 251.457 45.6577 251.597 45.4105C251.739 45.1634 251.81 44.9034 251.81 44.6307V43.7102C251.767 43.7614 251.673 43.8082 251.528 43.8509C251.386 43.8906 251.222 43.9261 251.034 43.9574C250.849 43.9858 250.669 44.0114 250.493 44.0341C250.32 44.054 250.179 44.071 250.071 44.0852C249.81 44.1193 249.565 44.1747 249.338 44.2514C249.114 44.3253 248.932 44.4375 248.793 44.5881C248.656 44.7358 248.588 44.9375 248.588 45.1932C248.588 45.5426 248.717 45.8068 248.976 45.9858C249.237 46.1619 249.568 46.25 249.969 46.25ZM257.31 47.1364C256.696 47.1364 256.168 46.9915 255.725 46.7017C255.282 46.4119 254.941 46.0128 254.702 45.5043C254.463 44.9957 254.344 44.4148 254.344 43.7614C254.344 43.0966 254.466 42.5099 254.711 42.0014C254.958 41.4901 255.301 41.0909 255.742 40.804C256.185 40.5142 256.702 40.3693 257.293 40.3693C257.753 40.3693 258.168 40.4545 258.537 40.625C258.907 40.7955 259.209 41.0341 259.445 41.3409C259.681 41.6477 259.827 42.0057 259.884 42.4148H258.878C258.801 42.1165 258.631 41.8523 258.367 41.6222C258.105 41.3892 257.753 41.2727 257.31 41.2727C256.918 41.2727 256.574 41.375 256.279 41.5795C255.986 41.7812 255.757 42.0668 255.593 42.4361C255.431 42.8026 255.35 43.233 255.35 43.7273C255.35 44.233 255.429 44.6733 255.588 45.0483C255.75 45.4233 255.978 45.7145 256.27 45.9219C256.566 46.1293 256.912 46.233 257.31 46.233C257.571 46.233 257.809 46.1875 258.022 46.0966C258.235 46.0057 258.415 45.875 258.563 45.7045C258.711 45.5341 258.816 45.3295 258.878 45.0909H259.884C259.827 45.4773 259.686 45.8253 259.462 46.1349C259.24 46.4418 258.946 46.6861 258.58 46.8679C258.216 47.0469 257.793 47.1364 257.31 47.1364ZM262.36 43.0625V47H261.354V38.2727H262.36V41.4773H262.445C262.598 41.1392 262.828 40.8707 263.135 40.6719C263.445 40.4702 263.857 40.3693 264.371 40.3693C264.817 40.3693 265.208 40.4588 265.543 40.6378C265.878 40.8139 266.138 41.0852 266.323 41.4517C266.51 41.8153 266.604 42.2784 266.604 42.8409V47H265.598V42.9091C265.598 42.3892 265.463 41.9872 265.194 41.7031C264.926 41.4162 264.556 41.2727 264.081 41.2727C263.752 41.2727 263.456 41.3423 263.195 41.4815C262.936 41.6207 262.732 41.8239 262.581 42.0909C262.434 42.358 262.36 42.6818 262.36 43.0625ZM268.444 47V40.4545H269.45V47H268.444ZM268.955 39.3636C268.759 39.3636 268.59 39.2969 268.448 39.1634C268.309 39.0298 268.239 38.8693 268.239 38.6818C268.239 38.4943 268.309 38.3338 268.448 38.2003C268.59 38.0668 268.759 38 268.955 38C269.151 38 269.319 38.0668 269.458 38.2003C269.6 38.3338 269.671 38.4943 269.671 38.6818C269.671 38.8693 269.6 39.0298 269.458 39.1634C269.319 39.2969 269.151 39.3636 268.955 39.3636ZM272.297 43.0625V47H271.292V40.4545H272.263V41.4773H272.348C272.502 41.1449 272.735 40.8778 273.047 40.6761C273.36 40.4716 273.763 40.3693 274.257 40.3693C274.701 40.3693 275.088 40.4602 275.421 40.642C275.753 40.821 276.012 41.0938 276.196 41.4602C276.381 41.8239 276.473 42.2841 276.473 42.8409V47H275.468V42.9091C275.468 42.3949 275.334 41.9943 275.067 41.7074C274.8 41.4176 274.434 41.2727 273.968 41.2727C273.647 41.2727 273.36 41.3423 273.107 41.4815C272.857 41.6207 272.659 41.8239 272.515 42.0909C272.37 42.358 272.297 42.6818 272.297 43.0625ZM281.055 47.1364C280.425 47.1364 279.881 46.9972 279.423 46.7188C278.969 46.4375 278.618 46.0455 278.371 45.5426C278.126 45.0369 278.004 44.4489 278.004 43.7784C278.004 43.108 278.126 42.517 278.371 42.0057C278.618 41.4915 278.962 41.0909 279.402 40.804C279.845 40.5142 280.362 40.3693 280.953 40.3693C281.294 40.3693 281.631 40.4261 281.963 40.5398C282.295 40.6534 282.598 40.8381 282.871 41.0938C283.143 41.3466 283.361 41.6818 283.523 42.0994C283.685 42.517 283.766 43.0312 283.766 43.642V44.0682H278.72V43.1989H282.743C282.743 42.8295 282.669 42.5 282.521 42.2102C282.376 41.9205 282.169 41.6918 281.899 41.5241C281.632 41.3565 281.317 41.2727 280.953 41.2727C280.553 41.2727 280.206 41.3722 279.913 41.571C279.624 41.767 279.401 42.0227 279.244 42.3381C279.088 42.6534 279.01 42.9915 279.01 43.3523V43.9318C279.01 44.4261 279.095 44.8452 279.266 45.1889C279.439 45.5298 279.679 45.7898 279.986 45.9688C280.293 46.1449 280.649 46.233 281.055 46.233C281.32 46.233 281.558 46.196 281.771 46.1222C281.987 46.0455 282.173 45.9318 282.33 45.7812C282.486 45.6278 282.607 45.4375 282.692 45.2102L283.663 45.483C283.561 45.8125 283.389 46.1023 283.148 46.3523C282.906 46.5994 282.608 46.7926 282.253 46.9318C281.898 47.0682 281.499 47.1364 281.055 47.1364Z" fill="#B4E380"/>
<path d="M34.6317 7.5C21.5662 7.5 15.0334 7.5 10.9767 11.895C6.92011 16.29 6.91666 23.3588 6.91666 37.5C6.91666 51.6412 6.91666 58.7137 10.9767 63.105C15.0368 67.4962 21.5662 67.5 34.6317 67.5H48.4893C61.5549 67.5 68.0877 67.5 72.1443 63.105C74.9455 60.075 75.8136 55.77 76.0833 48.75M41.5 67.5V82.5M27.6667 82.5H55.3333M38.0417 56.25H44.9583" stroke="#B4E380" stroke-width="3" stroke-linecap="round" stroke-linejoin="round"/>
<path d="M53.6042 37.5V45M63.9792 37.5V45M53.6042 7.5V15M63.9792 7.5V15M48.4167 20.625H41.5M48.4167 31.875H41.5M76.0833 20.625H69.1667M76.0833 31.875H69.1667M62.25 15H55.3333C52.0721 15 50.4432 15 49.4299 16.0988C48.4167 17.1975 48.4167 18.9637 48.4167 22.5V30C48.4167 33.5363 48.4167 35.3025 49.4299 36.4012C50.4432 37.5 52.0721 37.5 55.3333 37.5H62.25C65.5112 37.5 67.1401 37.5 68.1534 36.4012C69.1667 35.3025 69.1667 33.5363 69.1667 30V22.5C69.1667 18.9637 69.1667 17.1975 68.1534 16.0988C67.1401 15 65.5112 15 62.25 15Z" stroke="#B4E380" stroke-width="3" stroke-linecap="round" stroke-linejoin="round"/>
</svg>
